<?xml version="1.0" encoding="UTF-8" standalone="no"?>
<!DOCTYPE svg PUBLIC "-//W3C//DTD SVG 1.1//EN" "http://www.w3.org/Graphics/SVG/1.1/DTD/svg11.dtd">
<svg width="100%" height="100%" viewBox="0 0 600 801" version="1.1" xmlns="http://www.w3.org/2000/svg" xmlns:xlink="http://www.w3.org/1999/xlink" xml:space="preserve" xmlns:serif="http://www.serif.com/" style="fill-rule:evenodd;clip-rule:evenodd;stroke-linejoin:round;stroke-miterlimit:2;">
    <g transform="matrix(1,0,0,1,-100.488,-4.82986e-14)">
        <g>
            <path d="M616.806,36.339L492.167,36.339L487.1,13.578C485.359,5.647 478.312,0 470.186,0L329.789,0C321.662,0 314.642,5.647 312.875,13.578L307.833,36.339L183.168,36.339C137.566,36.339 100.488,73.431 100.488,119.033L100.488,717.308C100.488,762.91 137.566,800.002 183.168,800.002L616.808,800.002C662.41,800.002 699.515,762.91 699.515,717.308L699.515,119.033C699.514,73.431 662.408,36.339 616.806,36.339ZM645.468,717.306C645.468,733.102 632.615,745.954 616.806,745.954L183.167,745.954C167.385,745.954 154.532,733.102 154.532,717.306L154.532,119.033C154.532,103.237 167.385,90.387 183.167,90.387L295.824,90.387L292.948,103.317C291.786,108.449 293.054,113.833 296.327,117.925C299.623,122.029 304.613,124.417 309.862,124.417L490.133,124.417C495.386,124.417 500.373,122.029 503.644,117.925C506.945,113.821 508.211,108.451 507.05,103.317L504.175,90.387L616.806,90.387C632.615,90.387 645.468,103.239 645.468,119.033L645.468,717.306Z" style="fill:rgb(0,120,96);fill-rule:nonzero;"/>
            <path d="M290.309,320.203L363.805,320.203L346.337,308.275C321.686,291.453 315.354,257.816 332.19,233.168C349.002,208.546 382.649,202.174 407.296,219.023L410.175,220.989L410.175,200.366C410.175,186.999 399.328,176.153 385.973,176.153L290.309,176.153C276.957,176.153 266.11,187 266.11,200.366L266.11,295.99C266.11,309.359 276.957,320.203 290.309,320.203Z" style="fill:rgb(0,120,96);fill-rule:nonzero;"/>
            <path d="M515.339,187.461L430.627,267.66L392.044,241.337C379.773,232.905 362.935,236.098 354.49,248.41C346.072,260.732 349.239,277.544 361.59,285.962L418.145,324.583C422.764,327.751 428.067,329.294 433.373,329.294C440.102,329.294 446.777,326.789 451.952,321.892L552.498,226.704C563.343,216.452 563.79,199.338 553.551,188.504C543.26,177.671 526.183,177.209 515.339,187.461Z" style="fill:rgb(0,120,96);fill-rule:nonzero;"/>
            <path d="M290.309,505.845L363.832,505.845L346.337,493.904C321.686,477.078 315.354,443.445 332.19,418.797C349.002,394.16 382.649,387.788 407.296,404.65L410.175,406.618L410.175,385.995C410.175,372.629 399.328,361.782 385.973,361.782L290.309,361.782C276.957,361.782 266.11,372.629 266.11,385.995L266.11,481.633C266.11,494.998 276.957,505.845 290.309,505.845Z" style="fill:rgb(0,120,96);fill-rule:nonzero;"/>
            <path d="M515.339,373.102L430.627,453.288L392.044,426.965C379.773,418.519 362.935,421.7 354.49,434.037C346.072,446.363 349.239,463.171 361.59,471.591L418.145,510.212C422.764,513.38 428.067,514.923 433.373,514.923C440.102,514.923 446.777,512.415 451.952,507.521L552.498,412.345C563.343,402.093 563.79,384.992 553.551,374.145C543.26,363.31 526.183,362.861 515.339,373.102Z" style="fill:rgb(0,120,96);fill-rule:nonzero;"/>
            <path d="M385.973,547.422L290.309,547.422C276.957,547.422 266.11,558.269 266.11,571.634L266.11,667.258C266.11,680.624 276.957,691.471 290.309,691.471L385.973,691.471C399.328,691.471 410.175,680.624 410.175,667.258L410.175,571.634C410.175,558.269 399.328,547.422 385.973,547.422Z" style="fill:rgb(0,120,96);fill-rule:nonzero;"/>
        </g>
    </g>
</svg>
