<?xml version="1.0" encoding="UTF-8" standalone="no"?>
<!DOCTYPE svg PUBLIC "-//W3C//DTD SVG 1.1//EN" "http://www.w3.org/Graphics/SVG/1.1/DTD/svg11.dtd">
<svg width="100%" height="100%" viewBox="0 0 412 521" version="1.1" xmlns="http://www.w3.org/2000/svg" xmlns:xlink="http://www.w3.org/1999/xlink" xml:space="preserve" xmlns:serif="http://www.serif.com/" style="fill-rule:evenodd;clip-rule:evenodd;stroke-linejoin:round;stroke-miterlimit:2;">
    <g transform="matrix(1,0,0,1,-29.9305,-30.0776)">
        <g transform="matrix(0.1,0,0,-0.1,0,592)">
            <path d="M535,5606C442,5577 367,5511 328,5425C301,5364 289,5170 310,5119C347,5031 461,5025 505,5110C515,5130 520,5169 520,5235C520,5341 533,5379 577,5399C594,5407 992,5410 1915,5410L3230,5410L3230,5033C3230,4607 3232,4590 3302,4520C3379,4444 3368,4445 3808,4442L4200,4439L4200,708L4132,640L3990,640C3844,640 3819,635 3788,596C3761,563 3764,489 3794,457C3826,423 3862,417 4027,422C4160,425 4168,426 4233,458C4282,482 4312,506 4340,541C4415,637 4410,473 4410,2634L4410,4575L3903,5083C3623,5363 3383,5598 3368,5606C3345,5618 3140,5620 1958,5619C872,5619 566,5616 535,5606ZM3743,4955L4039,4660L3751,4660C3541,4660 3461,4663 3452,4672C3443,4681 3440,4760 3440,4967C3440,5123 3442,5250 3444,5250C3446,5250 3581,5117 3743,4955Z" style="fill:rgb(0,120,96);fill-rule:nonzero;"/>
        </g>
        <g transform="matrix(0.1,0,0,-0.1,0,592)">
            <path d="M1775,5044C1223,4944 817,4485 793,3935C784,3716 818,3541 905,3363C973,3224 1023,3155 1134,3044C1323,2855 1526,2750 1784,2705C2426,2595 3047,3050 3144,3703C3164,3838 3164,3924 3145,4048C3102,4313 2997,4523 2810,4711C2708,4814 2637,4866 2513,4930C2300,5041 2007,5086 1775,5044ZM1860,4420C1860,4195 1857,4010 1853,4010C1849,4010 1833,4014 1816,4020C1799,4025 1754,4036 1715,4044C1559,4076 1443,4101 1410,4110C1391,4115 1344,4125 1305,4134C1099,4178 1067,4186 1063,4197C1048,4235 1210,4492 1303,4577C1459,4721 1670,4823 1823,4829L1860,4830L1860,4420Z" style="fill:rgb(0,120,96);fill-rule:nonzero;"/>
        </g>
        <g transform="matrix(0.1,0,0,-0.1,0,592)">
            <path d="M361,4787C316,4760 311,4737 310,4545C310,4347 313,4334 372,4304C432,4273 499,4308 520,4381C531,4418 534,4659 524,4707C514,4760 480,4791 430,4796C403,4799 376,4795 361,4787Z" style="fill:rgb(0,120,96);fill-rule:nonzero;"/>
        </g>
        <g transform="matrix(0.1,0,0,-0.1,0,592)">
            <path d="M344,4006L310,3972L312,2308L315,645L342,594C377,527 457,456 523,433C572,416 648,415 2005,415C3365,415 3436,416 3461,433C3518,471 3525,564 3475,607L3449,630L2039,630C537,630 591,628 548,677C531,695 530,795 528,2331C525,3873 524,3966 507,3991C467,4050 394,4056 344,4006Z" style="fill:rgb(0,120,96);fill-rule:nonzero;"/>
        </g>
        <g transform="matrix(0.1,0,0,-0.1,0,592)">
            <path d="M958,2334C928,2318 900,2273 900,2240C900,2206 928,2161 960,2145C986,2132 1149,2130 2376,2132L3762,2135L3791,2168C3841,2224 3827,2301 3760,2335C3735,2348 3557,2350 2358,2350C1163,2349 981,2347 958,2334Z" style="fill:rgb(0,120,96);fill-rule:nonzero;"/>
        </g>
        <g transform="matrix(0.1,0,0,-0.1,0,592)">
            <path d="M940,1761C868,1690 903,1589 1003,1575C1026,1572 1656,1570 2403,1572L3762,1575L3791,1608C3834,1655 3832,1710 3786,1756L3752,1790L968,1790L940,1761Z" style="fill:rgb(0,120,96);fill-rule:nonzero;"/>
        </g>
        <g transform="matrix(0.1,0,0,-0.1,0,592)">
            <path d="M958,1224C928,1208 900,1163 900,1130C900,1118 907,1096 915,1080C948,1016 854,1020 2355,1020C3850,1020 3772,1017 3804,1079C3824,1117 3824,1143 3805,1180C3772,1244 3866,1240 2358,1240C1163,1239 981,1237 958,1224Z" style="fill:rgb(0,120,96);fill-rule:nonzero;"/>
        </g>
    </g>
</svg>
